<svg width="12" height="13" viewBox="0 0 12 13" fill="none" xmlns="http://www.w3.org/2000/svg">
<path fill-rule="evenodd" clip-rule="evenodd" d="M3.48456 11.2653C3.44964 11.2305 3.42193 11.1891 3.40303 11.1435C3.38412 11.098 3.37439 11.0491 3.37439 10.9998C3.37439 10.9505 3.38412 10.9017 3.40303 10.8561C3.42193 10.8105 3.44964 10.7692 3.48456 10.7343L7.71981 6.49982L3.48456 2.26532C3.44969 2.23045 3.42204 2.18906 3.40317 2.14351C3.3843 2.09795 3.37459 2.04913 3.37459 1.99982C3.37459 1.95051 3.3843 1.90168 3.40317 1.85613C3.42204 1.81058 3.44969 1.76918 3.48456 1.73432C3.51943 1.69945 3.56082 1.67179 3.60637 1.65293C3.65193 1.63406 3.70075 1.62434 3.75006 1.62434C3.79937 1.62434 3.84819 1.63406 3.89375 1.65293C3.9393 1.67179 3.98069 1.69945 4.01556 1.73432L8.51556 6.23432C8.55048 6.26915 8.57819 6.31053 8.59709 6.35609C8.616 6.40165 8.62573 6.45049 8.62573 6.49982C8.62573 6.54914 8.616 6.59798 8.59709 6.64354C8.57819 6.6891 8.55048 6.73048 8.51556 6.76532L4.01556 11.2653C3.98073 11.3002 3.93934 11.3279 3.89379 11.3469C3.84823 11.3658 3.79939 11.3755 3.75006 11.3755C3.70073 11.3755 3.65189 11.3658 3.60633 11.3469C3.56078 11.3279 3.51939 11.3002 3.48456 11.2653Z" fill="#042781"/>
</svg>
