<svg width="61" height="60" viewBox="0 0 61 60" fill="none" xmlns="http://www.w3.org/2000/svg">
<path d="M32.375 37.5C31.34 37.5 30.5 35.82 30.5 33.75C30.5 31.68 31.34 30 32.375 30C33.41 30 34.25 31.68 34.25 33.75C34.25 35.82 33.41 37.5 32.375 37.5Z" fill="#042781"/>
<path d="M41.105 0.457583C41.3078 0.633845 41.4703 0.851636 41.5816 1.0962C41.6929 1.34076 41.7503 1.60639 41.75 1.87508V3.75008H43.625C45.1168 3.75008 46.5476 4.34272 47.6025 5.39761C48.6574 6.4525 49.25 7.88324 49.25 9.37508V56.2501H54.875C55.3723 56.2501 55.8492 56.4476 56.2008 56.7993C56.5525 57.1509 56.75 57.6278 56.75 58.1251C56.75 58.6224 56.5525 59.0993 56.2008 59.4509C55.8492 59.8025 55.3723 60.0001 54.875 60.0001H6.125C5.62772 60.0001 5.15081 59.8025 4.79917 59.4509C4.44754 59.0993 4.25 58.6224 4.25 58.1251C4.25 57.6278 4.44754 57.1509 4.79917 56.7993C5.15081 56.4476 5.62772 56.2501 6.125 56.2501H11.75V5.62508C11.7501 5.17333 11.9132 4.73679 12.2095 4.39574C12.5058 4.0547 12.9152 3.83208 13.3625 3.76883L39.6125 0.018833C39.8782 -0.0191097 40.1489 0.000425396 40.4064 0.0761179C40.6639 0.15181 40.9021 0.281896 41.105 0.457583ZM43.625 7.50008H41.75V56.2501H45.5V9.37508C45.5 8.8778 45.3025 8.40089 44.9508 8.04926C44.5992 7.69763 44.1223 7.50008 43.625 7.50008ZM15.5 7.25258V56.2501H38V4.03883L15.5 7.25258Z" fill="#042781"/>
</svg>
