<svg width="61" height="60" viewBox="0 0 61 60" fill="none" xmlns="http://www.w3.org/2000/svg">
<path d="M5.5 35L13.5825 41.0625C14.0984 41.4493 14.7438 41.6219 15.3839 41.5441C16.024 41.4663 16.6093 41.1441 17.0175 40.645L38 15" stroke="#042781" stroke-width="5" stroke-linecap="round"/>
<path fill-rule="evenodd" clip-rule="evenodd" d="M25.1851 39.4499L29.5076 42.9074C30.5355 43.7297 31.8462 44.1134 33.1553 43.9753C34.4644 43.8373 35.6663 43.1885 36.5001 42.1699L57.4351 16.5824C57.8428 16.068 58.0318 15.4138 57.9614 14.7612C57.8909 14.1086 57.5666 13.5099 57.0585 13.0943C56.5504 12.6788 55.8992 12.4797 55.2456 12.5402C54.592 12.6006 53.9884 12.9157 53.5651 13.4174L32.6301 38.9999L28.3526 35.5774L25.1851 39.4499Z" fill="#042781"/>
</svg>
