<svg width="15" height="14" viewBox="0 0 15 14" fill="none" xmlns="http://www.w3.org/2000/svg">
<path opacity="0.2" d="M14.25 7C14.25 8.33502 13.8541 9.64007 13.1124 10.7501C12.3707 11.8601 11.3165 12.7253 10.0831 13.2362C8.84971 13.7471 7.49252 13.8808 6.18314 13.6203C4.87377 13.3599 3.67104 12.717 2.72703 11.773C1.78303 10.829 1.14015 9.62623 0.879702 8.31686C0.619252 7.00749 0.752925 5.65029 1.26382 4.41689C1.77471 3.18349 2.63987 2.12928 3.7499 1.38758C4.85994 0.645881 6.16498 0.25 7.5 0.25C9.29021 0.25 11.0071 0.961159 12.273 2.22703C13.5388 3.4929 14.25 5.20979 14.25 7Z" fill="#111318"/>
<path d="M9.1875 7C9.1875 7.33376 9.08853 7.66002 8.90311 7.93752C8.71768 8.21503 8.45413 8.43132 8.14578 8.55905C7.83743 8.68677 7.49813 8.72019 7.17079 8.65508C6.84344 8.58996 6.54276 8.42924 6.30676 8.19324C6.07076 7.95724 5.91004 7.65656 5.84493 7.32921C5.77981 7.00187 5.81323 6.66257 5.94095 6.35422C6.06868 6.04587 6.28497 5.78232 6.56248 5.59689C6.83998 5.41147 7.16625 5.3125 7.5 5.3125C7.94755 5.3125 8.37678 5.49029 8.69324 5.80676C9.00971 6.12322 9.1875 6.55245 9.1875 7Z" fill="#111318"/>
</svg>
