<svg width="41" height="50" viewBox="0 0 41 50" fill="none" xmlns="http://www.w3.org/2000/svg">
<path d="M20.5 25C17.75 25 15.5 22.75 15.5 20C15.5 17.25 17.75 15 20.5 15C23.25 15 25.5 17.25 25.5 20C25.5 22.75 23.25 25 20.5 25ZM35.5 20.5C35.5 11.425 28.875 5 20.5 5C12.125 5 5.5 11.425 5.5 20.5C5.5 26.35 10.375 34.1 20.5 43.35C30.625 34.1 35.5 26.35 35.5 20.5ZM20.5 0C31 0 40.5 8.05 40.5 20.5C40.5 28.8 33.825 38.625 20.5 50C7.175 38.625 0.5 28.8 0.5 20.5C0.5 8.05 10 0 20.5 0Z" fill="#042781"/>
</svg>
