<svg width="31" height="31" viewBox="0 0 31 31" fill="none" xmlns="http://www.w3.org/2000/svg">
<path d="M8.9 21.3C9.21826 21.2072 9.56036 21.2446 9.85104 21.404C10.1417 21.5634 10.3572 21.8317 10.45 22.15C10.5428 22.4683 10.5054 22.8104 10.346 23.101C10.1866 23.3917 9.91826 23.6072 9.6 23.7C8.975 23.8825 8.525 24.075 8.23625 24.25C8.53375 24.4288 9.00375 24.6287 9.65625 24.815C11.1 25.2275 13.1663 25.5 15.5 25.5C17.8337 25.5 19.9 25.2275 21.3437 24.815C21.9975 24.6287 22.4663 24.4288 22.7638 24.25C22.4763 24.075 22.0263 23.8825 21.4013 23.7C21.088 23.6031 20.8254 23.387 20.67 23.0982C20.5146 22.8095 20.4789 22.4712 20.5705 22.1564C20.6622 21.8416 20.8739 21.5754 21.16 21.4152C21.4461 21.255 21.7837 21.2136 22.1 21.3C22.935 21.5437 23.7 21.8562 24.2875 22.2575C24.8313 22.6313 25.5 23.2825 25.5 24.25C25.5 25.2288 24.815 25.885 24.2625 26.2588C23.665 26.6613 22.8838 26.975 22.03 27.2188C20.3075 27.7125 18 28 15.5 28C13 28 10.6925 27.7125 8.97 27.2188C8.11625 26.975 7.335 26.6613 6.7375 26.2588C6.185 25.8838 5.5 25.2288 5.5 24.25C5.5 23.2825 6.16875 22.6313 6.7125 22.2575C7.3 21.8562 8.065 21.5437 8.9 21.3ZM15.5 9.875C13.575 9.875 12.3725 11.9588 13.335 13.625C13.7812 14.3987 14.6062 14.875 15.5 14.875C17.425 14.875 18.6275 12.7912 17.665 11.125C17.4456 10.745 17.13 10.4294 16.75 10.21C16.3699 9.99053 15.9388 9.87501 15.5 9.875Z" fill="#111318"/>
<path opacity="0.3" d="M15.5 3C17.9864 3 20.371 3.98772 22.1291 5.74587C23.8873 7.50403 24.875 9.8886 24.875 12.375C24.875 15.585 23.125 18.195 21.3125 20.05C20.592 20.7799 19.8177 21.4547 18.9963 22.0687C18.2537 22.6262 16.5563 23.6713 16.5563 23.6713C16.2343 23.8542 15.8703 23.9505 15.5 23.9505C15.1297 23.9505 14.7657 23.8542 14.4437 23.6713C13.6013 23.1828 12.7867 22.6478 12.0037 22.0687C11.1823 21.4547 10.408 20.7799 9.6875 20.05C7.875 18.195 6.125 15.585 6.125 12.375C6.125 9.8886 7.11272 7.50403 8.87087 5.74587C10.629 3.98772 13.0136 3 15.5 3Z" fill="#444444"/>
</svg>
