<svg width="24" height="24" viewBox="0 0 24 24" fill="none" xmlns="http://www.w3.org/2000/svg">
<path d="M6.5 1.25C7.125 1.25 9.625 6.875 9.625 7.5C9.625 8.75 7.75 10 7.125 11.25C6.5 12.5 7.75 13.75 9 15C9.4875 15.4875 11.5 17.5 12.75 16.875C14 16.25 15.25 14.375 16.5 14.375C17.125 14.375 22.75 16.875 22.75 17.5C22.75 20 20.875 21.875 19 22.5C17.125 23.125 15.875 23.125 13.375 22.5C10.875 21.875 9 21.25 5.875 18.125C2.75 15 2.125 13.125 1.5 10.625C0.875 8.125 0.875 6.875 1.5 5C2.125 3.125 4 1.25 6.5 1.25Z" fill="#B3B3B3" stroke="#111318" stroke-width="2" stroke-linecap="round" stroke-linejoin="round"/>
<path d="M14 6.30005C14.825 6.68755 15.575 7.21255 16.2 7.85005C16.8125 8.46255 17.325 9.20005 17.7 10" stroke="#111318" stroke-width="2" stroke-linecap="round" stroke-linejoin="round"/>
<path d="M15.25 1.5625C17.0125 2.025 18.5875 2.9375 19.8375 4.1875C21.075 5.4375 21.9875 7 22.4375 8.75" stroke="#111318" stroke-width="2" stroke-linecap="round" stroke-linejoin="round"/>
</svg>
