<svg width="47" height="48" viewBox="0 0 47 48" fill="none" xmlns="http://www.w3.org/2000/svg">
<path d="M28.3133 3.76486C28.377 3.5269 28.4869 3.30382 28.6368 3.10835C28.7866 2.91289 28.9736 2.74887 29.1869 2.62568C29.4002 2.50249 29.6357 2.42253 29.8799 2.39038C30.1241 2.35823 30.3723 2.37451 30.6102 2.4383C34.0861 3.34521 37.2575 5.16231 39.7976 7.70244C42.3377 10.2426 44.1548 13.4139 45.0617 16.8899C45.1255 17.1278 45.1418 17.3759 45.1097 17.6201C45.0775 17.8644 44.9976 18.0998 44.8744 18.3132C44.7512 18.5265 44.5872 18.7134 44.3917 18.8633C44.1962 19.0132 43.9731 19.1231 43.7352 19.1867C43.5768 19.2284 43.4138 19.2497 43.25 19.25C42.8368 19.25 42.4352 19.1135 42.1076 18.8618C41.78 18.61 41.5447 18.2571 41.4383 17.8578C40.6986 15.0203 39.2156 12.4314 37.1422 10.3579C35.0687 8.2844 32.4797 6.80139 29.6422 6.06173C29.404 5.99834 29.1807 5.88861 28.985 5.73882C28.7893 5.58904 28.625 5.40214 28.5016 5.18881C28.3781 4.97548 28.298 4.73991 28.2657 4.49558C28.2334 4.25124 28.2496 4.00293 28.3133 3.76486ZM27.7672 13.5617C30.9992 14.4242 33.0758 16.5008 33.9383 19.7328C34.0447 20.1321 34.28 20.485 34.6076 20.7368C34.9352 20.9885 35.3368 21.125 35.75 21.125C35.9138 21.1247 36.0768 21.1034 36.2352 21.0617C36.4731 20.9981 36.6962 20.8882 36.8917 20.7383C37.0872 20.5884 37.2512 20.4015 37.3744 20.1882C37.4976 19.9748 37.5775 19.7394 37.6097 19.4951C37.6418 19.2509 37.6255 19.0028 37.5617 18.7649C36.3617 14.2742 33.2258 11.1383 28.7352 9.9383C28.2547 9.80993 27.7429 9.87771 27.3123 10.1267C26.8818 10.3757 26.5678 10.7855 26.4395 11.266C26.3111 11.7465 26.3789 12.2583 26.6279 12.6889C26.8769 13.1194 27.2867 13.4334 27.7672 13.5617ZM46.9719 35.9094C46.554 39.0852 44.9943 42.0004 42.5842 44.1103C40.174 46.2203 37.0782 47.3808 33.875 47.375C15.2656 47.375 0.125021 32.2344 0.125021 13.625C0.119279 10.4218 1.27976 7.326 3.38971 4.91586C5.49966 2.50572 8.41479 0.946045 11.5906 0.528139C12.3937 0.430079 13.207 0.594378 13.9091 0.996511C14.6111 1.39864 15.1643 2.01704 15.486 2.75939L20.436 13.8102V13.8383C20.6823 14.4065 20.784 15.027 20.732 15.6441C20.6801 16.2612 20.4761 16.8559 20.1383 17.375C20.0961 17.4383 20.0516 17.4969 20.0047 17.5555L15.125 23.3399C16.8805 26.907 20.6117 30.6055 24.2258 32.3656L29.9305 27.5117C29.9865 27.4646 30.0452 27.4208 30.1063 27.3805C30.6249 27.0346 31.2217 26.8234 31.8424 26.7661C32.4632 26.7088 33.0885 26.8072 33.6617 27.0524L33.6922 27.0664L44.7336 32.0141C45.4773 32.3346 46.0972 32.8873 46.5006 33.5895C46.9041 34.2916 47.0694 35.1055 46.9719 35.9094ZM43.25 35.4406H43.2242L32.2086 30.507L26.5016 35.361C26.4464 35.408 26.3885 35.4518 26.3281 35.4922C25.7885 35.8522 25.1647 36.0661 24.5177 36.1129C23.8707 36.1598 23.2226 36.0379 22.6367 35.7594C18.2469 33.6383 13.8711 29.2953 11.7477 24.9524C11.4665 24.3708 11.3403 23.7264 11.3814 23.0817C11.4224 22.437 11.6294 21.8139 11.9821 21.2727C12.0217 21.209 12.0664 21.1487 12.1156 21.0922L17 15.3008L12.0781 4.28517C12.0772 4.27582 12.0772 4.2664 12.0781 4.25705C9.80531 4.55353 7.71848 5.66837 6.20849 7.39278C4.69849 9.1172 3.86888 11.3329 3.87502 13.625C3.88371 21.5788 7.0472 29.2044 12.6714 34.8286C18.2956 40.4528 25.9212 43.6163 33.875 43.625C36.1657 43.6329 38.3808 42.8062 40.1063 41.2994C41.8317 39.7927 42.9492 37.7092 43.25 35.4383V35.4406Z" fill="#042781"/>
</svg>
