<svg width="31" height="31" viewBox="0 0 31 31" fill="none" xmlns="http://www.w3.org/2000/svg">
<path d="M18.25 4.25H12.75C7.565 4.25 4.97125 4.25 3.36125 5.8975C1.75125 7.545 1.75 10.1975 1.75 15.5C1.75 20.8025 1.75 23.455 3.36125 25.1025C4.9725 26.75 7.565 26.75 12.75 26.75H18.25C23.435 26.75 26.0288 26.75 27.6388 25.1025C29.2488 23.455 29.25 20.8025 29.25 15.5C29.25 10.1975 29.25 7.545 27.6388 5.8975C26.0275 4.25 23.435 4.25 18.25 4.25Z" fill="#B3B3B3"/>
<path d="M24.41 10.5412C24.6202 10.3662 24.7523 10.1148 24.7771 9.84244C24.8019 9.57004 24.7176 9.29893 24.5425 9.08875C24.3675 8.87856 24.1161 8.74652 23.8437 8.72167C23.5713 8.69683 23.3002 8.7812 23.09 8.95625L20.1213 11.4312C18.8388 12.5 17.9488 13.24 17.1963 13.7225C16.4688 14.1912 15.975 14.3475 15.5 14.3475C15.025 14.3475 14.5325 14.1912 13.8038 13.7225C13.0525 13.24 12.1613 12.5 10.8788 11.43L7.91003 8.95625C7.69984 8.7812 7.42873 8.69683 7.15634 8.72167C6.88394 8.74652 6.63257 8.87856 6.45753 9.08875C6.28249 9.29893 6.19811 9.57004 6.22296 9.84244C6.2478 10.1148 6.37985 10.3662 6.59003 10.5412L9.61003 13.0587C10.8288 14.0737 11.8163 14.8962 12.6888 15.4587C13.5963 16.0412 14.4813 16.4112 15.5013 16.4112C16.5188 16.4112 17.4038 16.0412 18.3125 15.4575C19.1838 14.8975 20.1713 14.0737 21.39 13.0575L24.41 10.5412Z" fill="#111318"/>
</svg>
