<svg width="108" height="20" viewBox="0 0 108 20" fill="none" xmlns="http://www.w3.org/2000/svg">
<path d="M9.9993 14.3959L6.54096 16.4792C6.38819 16.5765 6.22846 16.6181 6.0618 16.6042C5.89513 16.5904 5.7493 16.5348 5.6243 16.4376C5.4993 16.3404 5.40208 16.219 5.33263 16.0734C5.26319 15.9279 5.2493 15.7645 5.29096 15.5834L6.20763 11.6459L3.14513 9.00008C3.00624 8.87508 2.91958 8.73258 2.88513 8.57258C2.85069 8.41258 2.86096 8.25647 2.91596 8.10425C2.97096 7.95203 3.0543 7.82703 3.16596 7.72925C3.27763 7.63147 3.43041 7.56897 3.6243 7.54175L7.66596 7.18758L9.22846 3.47925C9.29791 3.31258 9.40569 3.18758 9.5518 3.10425C9.69791 3.02091 9.84707 2.97925 9.9993 2.97925C10.1515 2.97925 10.3007 3.02091 10.4468 3.10425C10.5929 3.18758 10.7007 3.31258 10.7701 3.47925L12.3326 7.18758L16.3743 7.54175C16.5687 7.56953 16.7215 7.63203 16.8326 7.72925C16.9437 7.82647 17.0271 7.95147 17.0826 8.10425C17.1382 8.25703 17.1487 8.41341 17.1143 8.57341C17.0799 8.73341 16.9929 8.87564 16.8535 9.00008L13.791 11.6459L14.7076 15.5834C14.7493 15.764 14.7354 15.9273 14.666 16.0734C14.5965 16.2195 14.4993 16.3409 14.3743 16.4376C14.2493 16.5342 14.1035 16.5898 13.9368 16.6042C13.7701 16.6187 13.6104 16.577 13.4576 16.4792L9.9993 14.3959Z" fill="url(#paint0_linear_82_5947)"/>
<path d="M31.9993 14.3959L28.541 16.4792C28.3882 16.5765 28.2285 16.6181 28.0618 16.6042C27.8951 16.5904 27.7493 16.5348 27.6243 16.4376C27.4993 16.3404 27.4021 16.219 27.3326 16.0734C27.2632 15.9279 27.2493 15.7645 27.291 15.5834L28.2076 11.6459L25.1451 9.00008C25.0062 8.87508 24.9196 8.73258 24.8851 8.57258C24.8507 8.41258 24.861 8.25647 24.916 8.10425C24.971 7.95203 25.0543 7.82703 25.166 7.72925C25.2776 7.63147 25.4304 7.56897 25.6243 7.54175L29.666 7.18758L31.2285 3.47925C31.2979 3.31258 31.4057 3.18758 31.5518 3.10425C31.6979 3.02091 31.8471 2.97925 31.9993 2.97925C32.1515 2.97925 32.3007 3.02091 32.4468 3.10425C32.5929 3.18758 32.7007 3.31258 32.7701 3.47925L34.3326 7.18758L38.3743 7.54175C38.5687 7.56953 38.7215 7.63203 38.8326 7.72925C38.9437 7.82647 39.0271 7.95147 39.0826 8.10425C39.1382 8.25703 39.1487 8.41341 39.1143 8.57341C39.0799 8.73341 38.9929 8.87564 38.8535 9.00008L35.791 11.6459L36.7076 15.5834C36.7493 15.764 36.7354 15.9273 36.666 16.0734C36.5965 16.2195 36.4993 16.3409 36.3743 16.4376C36.2493 16.5342 36.1035 16.5898 35.9368 16.6042C35.7701 16.6187 35.6104 16.577 35.4576 16.4792L31.9993 14.3959Z" fill="url(#paint1_linear_82_5947)"/>
<path d="M53.9993 14.3959L50.541 16.4792C50.3882 16.5765 50.2285 16.6181 50.0618 16.6042C49.8951 16.5904 49.7493 16.5348 49.6243 16.4376C49.4993 16.3404 49.4021 16.219 49.3326 16.0734C49.2632 15.9279 49.2493 15.7645 49.291 15.5834L50.2076 11.6459L47.1451 9.00008C47.0062 8.87508 46.9196 8.73258 46.8851 8.57258C46.8507 8.41258 46.861 8.25647 46.916 8.10425C46.971 7.95203 47.0543 7.82703 47.166 7.72925C47.2776 7.63147 47.4304 7.56897 47.6243 7.54175L51.666 7.18758L53.2285 3.47925C53.2979 3.31258 53.4057 3.18758 53.5518 3.10425C53.6979 3.02091 53.8471 2.97925 53.9993 2.97925C54.1515 2.97925 54.3007 3.02091 54.4468 3.10425C54.5929 3.18758 54.7007 3.31258 54.7701 3.47925L56.3326 7.18758L60.3743 7.54175C60.5687 7.56953 60.7215 7.63203 60.8326 7.72925C60.9437 7.82647 61.0271 7.95147 61.0826 8.10425C61.1382 8.25703 61.1487 8.41341 61.1143 8.57341C61.0799 8.73341 60.9929 8.87564 60.8535 9.00008L57.791 11.6459L58.7076 15.5834C58.7493 15.764 58.7354 15.9273 58.666 16.0734C58.5965 16.2195 58.4993 16.3409 58.3743 16.4376C58.2493 16.5342 58.1035 16.5898 57.9368 16.6042C57.7701 16.6187 57.6104 16.577 57.4576 16.4792L53.9993 14.3959Z" fill="url(#paint2_linear_82_5947)"/>
<path d="M75.9993 14.3959L72.541 16.4792C72.3882 16.5765 72.2285 16.6181 72.0618 16.6042C71.8951 16.5904 71.7493 16.5348 71.6243 16.4376C71.4993 16.3404 71.4021 16.219 71.3326 16.0734C71.2632 15.9279 71.2493 15.7645 71.291 15.5834L72.2076 11.6459L69.1451 9.00008C69.0062 8.87508 68.9196 8.73258 68.8851 8.57258C68.8507 8.41258 68.861 8.25647 68.916 8.10425C68.971 7.95203 69.0543 7.82703 69.166 7.72925C69.2776 7.63147 69.4304 7.56897 69.6243 7.54175L73.666 7.18758L75.2285 3.47925C75.2979 3.31258 75.4057 3.18758 75.5518 3.10425C75.6979 3.02091 75.8471 2.97925 75.9993 2.97925C76.1515 2.97925 76.3007 3.02091 76.4468 3.10425C76.5929 3.18758 76.7007 3.31258 76.7701 3.47925L78.3326 7.18758L82.3743 7.54175C82.5687 7.56953 82.7215 7.63203 82.8326 7.72925C82.9437 7.82647 83.0271 7.95147 83.0826 8.10425C83.1382 8.25703 83.1487 8.41341 83.1143 8.57341C83.0799 8.73341 82.9929 8.87564 82.8535 9.00008L79.791 11.6459L80.7076 15.5834C80.7493 15.764 80.7354 15.9273 80.666 16.0734C80.5965 16.2195 80.4993 16.3409 80.3743 16.4376C80.2493 16.5342 80.1035 16.5898 79.9368 16.6042C79.7701 16.6187 79.6104 16.577 79.4576 16.4792L75.9993 14.3959Z" fill="url(#paint3_linear_82_5947)"/>
<path d="M97.9993 14.3959L94.541 16.4792C94.3882 16.5765 94.2285 16.6181 94.0618 16.6042C93.8951 16.5904 93.7493 16.5348 93.6243 16.4376C93.4993 16.3404 93.4021 16.219 93.3326 16.0734C93.2632 15.9279 93.2493 15.7645 93.291 15.5834L94.2076 11.6459L91.1451 9.00008C91.0062 8.87508 90.9196 8.73258 90.8851 8.57258C90.8507 8.41258 90.861 8.25647 90.916 8.10425C90.971 7.95203 91.0543 7.82703 91.166 7.72925C91.2776 7.63147 91.4304 7.56897 91.6243 7.54175L95.666 7.18758L97.2285 3.47925C97.2979 3.31258 97.4057 3.18758 97.5518 3.10425C97.6979 3.02091 97.8471 2.97925 97.9993 2.97925C98.1515 2.97925 98.3007 3.02091 98.4468 3.10425C98.5929 3.18758 98.7007 3.31258 98.7701 3.47925L100.333 7.18758L104.374 7.54175C104.569 7.56953 104.722 7.63203 104.833 7.72925C104.944 7.82647 105.027 7.95147 105.083 8.10425C105.138 8.25703 105.149 8.41341 105.114 8.57341C105.08 8.73341 104.993 8.87564 104.853 9.00008L101.791 11.6459L102.708 15.5834C102.749 15.764 102.735 15.9273 102.666 16.0734C102.597 16.2195 102.499 16.3409 102.374 16.4376C102.249 16.5342 102.103 16.5898 101.937 16.6042C101.77 16.6187 101.61 16.577 101.458 16.4792L97.9993 14.3959Z" fill="url(#paint4_linear_82_5947)"/>
<defs>
<linearGradient id="paint0_linear_82_5947" x1="9.99965" y1="2.97925" x2="9.99965" y2="16.607" gradientUnits="userSpaceOnUse">
<stop stop-color="#ED9C05"/>
<stop offset="0.283654" stop-color="#A06801"/>
<stop offset="0.605769" stop-color="#D68D06"/>
<stop offset="0.831731" stop-color="#A06801"/>
</linearGradient>
<linearGradient id="paint1_linear_82_5947" x1="31.9997" y1="2.97925" x2="31.9997" y2="16.607" gradientUnits="userSpaceOnUse">
<stop stop-color="#ED9C05"/>
<stop offset="0.283654" stop-color="#A06801"/>
<stop offset="0.605769" stop-color="#D68D06"/>
<stop offset="0.831731" stop-color="#A06801"/>
</linearGradient>
<linearGradient id="paint2_linear_82_5947" x1="53.9997" y1="2.97925" x2="53.9997" y2="16.607" gradientUnits="userSpaceOnUse">
<stop stop-color="#ED9C05"/>
<stop offset="0.283654" stop-color="#A06801"/>
<stop offset="0.605769" stop-color="#D68D06"/>
<stop offset="0.831731" stop-color="#A06801"/>
</linearGradient>
<linearGradient id="paint3_linear_82_5947" x1="75.9997" y1="2.97925" x2="75.9997" y2="16.607" gradientUnits="userSpaceOnUse">
<stop stop-color="#ED9C05"/>
<stop offset="0.283654" stop-color="#A06801"/>
<stop offset="0.605769" stop-color="#D68D06"/>
<stop offset="0.831731" stop-color="#A06801"/>
</linearGradient>
<linearGradient id="paint4_linear_82_5947" x1="97.9997" y1="2.97925" x2="97.9997" y2="16.607" gradientUnits="userSpaceOnUse">
<stop stop-color="#ED9C05"/>
<stop offset="0.283654" stop-color="#A06801"/>
<stop offset="0.605769" stop-color="#D68D06"/>
<stop offset="0.831731" stop-color="#A06801"/>
</linearGradient>
</defs>
</svg>
