<svg width="33" height="19" viewBox="0 0 33 19" fill="none" xmlns="http://www.w3.org/2000/svg">
<path fill-rule="evenodd" clip-rule="evenodd" d="M31.9876 17.6752C31.8744 17.7886 31.7399 17.8787 31.5919 17.9401C31.4438 18.0016 31.2851 18.0332 31.1248 18.0332C30.9645 18.0332 30.8057 18.0016 30.6577 17.9401C30.5096 17.8787 30.3751 17.7886 30.2619 17.6752L16.4998 3.91059L2.73765 17.6752C2.62434 17.7885 2.48981 17.8784 2.34176 17.9397C2.19371 18.001 2.03503 18.0326 1.87477 18.0326C1.71453 18.0326 1.55584 18.001 1.40779 17.9397C1.25974 17.8784 1.12521 17.7885 1.0119 17.6752C0.898586 17.5618 0.808699 17.4273 0.747374 17.2793C0.686049 17.1312 0.654486 16.9725 0.654486 16.8123C0.654486 16.652 0.686049 16.4933 0.747374 16.3453C0.808699 16.1972 0.898586 16.0627 1.0119 15.9494L15.6369 1.3244C15.7501 1.2109 15.8846 1.12085 16.0327 1.05941C16.1807 0.997971 16.3395 0.966345 16.4998 0.966345C16.6601 0.966345 16.8188 0.997971 16.9669 1.05941C17.1149 1.12085 17.2494 1.2109 17.3626 1.3244L31.9876 15.9494C32.1011 16.0626 32.1912 16.1971 32.2526 16.3452C32.3141 16.4932 32.3457 16.652 32.3457 16.8123C32.3457 16.9726 32.3141 17.1313 32.2526 17.2794C32.1912 17.4274 32.1011 17.5619 31.9876 17.6752Z" fill="#111318"/>
</svg>
