<svg width="46" height="46" viewBox="0 0 46 46" fill="none" xmlns="http://www.w3.org/2000/svg">
<path d="M12.6666 1.375C13.8958 1.375 18.8125 12.4375 18.8125 13.6667C18.8125 16.125 15.125 18.5833 13.8958 21.0417C12.6666 23.5 15.125 25.9583 17.5833 28.4167C18.5421 29.3754 22.5 33.3333 24.9583 32.1042C27.4166 30.875 29.875 27.1875 32.3333 27.1875C33.5625 27.1875 44.625 32.1042 44.625 33.3333C44.625 38.25 40.9375 41.9375 37.25 43.1667C33.5625 44.3958 31.1041 44.3958 26.1875 43.1667C21.2708 41.9375 17.5833 40.7083 11.4375 34.5625C5.29165 28.4167 4.06248 24.7292 2.83331 19.8125C1.60415 14.8958 1.60415 12.4375 2.83331 8.75C4.06248 5.0625 7.74998 1.375 12.6666 1.375Z" stroke="#FDFDFD" stroke-width="2" stroke-linecap="round" stroke-linejoin="round"/>
<path d="M27.4166 11.3066C29.0391 12.0687 30.5141 13.1012 31.7433 14.355C32.9479 15.5596 33.9558 17.01 34.6933 18.5833" stroke="#FDFDFD" stroke-width="2" stroke-linecap="round" stroke-linejoin="round"/>
<path d="M29.875 1.98975C33.3413 2.89933 36.4388 4.69391 38.8971 7.15225C41.3308 9.61058 43.1254 12.6835 44.0104 16.1252" stroke="#FDFDFD" stroke-width="2" stroke-linecap="round" stroke-linejoin="round"/>
</svg>
